<svg width="600" height="400" viewBox="0 0 600 400" xmlns="http://www.w3.org/2000/svg">
  <!-- Premium E-commerce Background -->
  <defs>
    <linearGradient id="bgGradient2" x1="0%" y1="0%" x2="100%" y2="100%">
      <stop offset="0%" style="stop-color:#7c3aed"/>
      <stop offset="50%" style="stop-color:#a855f7"/>
      <stop offset="100%" style="stop-color:#ec4899"/>
    </linearGradient>
    <linearGradient id="cardGradient2" x1="0%" y1="0%" x2="100%" y2="100%">
      <stop offset="0%" style="stop-color:#ffffff" stop-opacity="0.98"/>
      <stop offset="100%" style="stop-color:#fdf2f8" stop-opacity="0.95"/>
    </linearGradient>
    <radialGradient id="productGlow" cx="50%" cy="50%" r="40%">
      <stop offset="0%" style="stop-color:#ec4899" stop-opacity="0.4"/>
      <stop offset="100%" style="stop-color:#a855f7" stop-opacity="0.1"/>
    </radialGradient>
  </defs>

  <!-- Background -->
  <rect width="600" height="400" fill="url(#bgGradient2)"/>

  <!-- Ambient Glow -->
  <ellipse cx="300" cy="200" rx="200" ry="150" fill="url(#productGlow)" opacity="0.3"/>

  <!-- Modern E-commerce Interface -->
  <rect x="50" y="70" width="500" height="290" rx="20" fill="url(#cardGradient2)" stroke="rgba(255,255,255,0.3)" stroke-width="2"/>
  <rect x="50" y="70" width="500" height="290" rx="20" fill="none" stroke="rgba(255,255,255,0.1)" stroke-width="1"/>

  <!-- Header Navigation -->
  <rect x="70" y="90" width="460" height="50" rx="12" fill="rgba(31, 41, 55, 0.9)"/>
  <circle cx="90" cy="115" r="10" fill="#ec4899"/>
  <text x="110" y="120" font-family="system-ui, -apple-system, sans-serif" font-size="16" font-weight="700" fill="white">Boutique Luna</text>

  <!-- Search Bar -->
  <rect x="280" y="105" width="150" height="24" rx="12" fill="rgba(255,255,255,0.9)"/>
  <circle cx="290" cy="117" r="6" fill="#9ca3af"/>
  <line x1="296" y1="117" x2="302" y2="117" stroke="#9ca3af" stroke-width="2"/>
  <text x="310" y="120" font-family="system-ui, -apple-system, sans-serif" font-size="10" fill="#6b7280">Buscar productos...</text>

  <!-- Shopping Cart -->
  <rect x="450" y="105" width="60" height="24" rx="12" fill="#ec4899"/>
  <circle cx="465" cy="117" r="6" fill="white"/>
  <text x="477" y="122" font-family="system-ui, -apple-system, sans-serif" font-size="10" font-weight="600" fill="white">Carrito (3)</text>

  <!-- Featured Products Grid -->
  <g transform="translate(70, 160)">
    <!-- Product 1 -->
    <rect x="0" y="0" width="120" height="80" rx="12" fill="rgba(236, 72, 153, 0.1)" stroke="rgba(236, 72, 153, 0.2)"/>
    <!-- Product image placeholder -->
    <rect x="10" y="10" width="40" height="40" rx="8" fill="rgba(236, 72, 153, 0.2)"/>
    <circle cx="30" cy="30" r="8" fill="rgba(236, 72, 153, 0.4)"/>
    <!-- Product info -->
    <text x="60" y="25" font-family="system-ui, -apple-system, sans-serif" font-size="10" font-weight="600" fill="#1f2937">Vestido Elegante</text>
    <text x="60" y="38" font-family="system-ui, -apple-system, sans-serif" font-size="12" font-weight="700" fill="#ec4899">$89.99</text>
    <!-- Add to cart button -->
    <rect x="60" y="45" width="50" height="20" rx="10" fill="#ec4899"/>
    <text x="85" y="57" font-family="system-ui, -apple-system, sans-serif" font-size="8" font-weight="600" fill="white" text-anchor="middle">Agregar</text>

    <!-- Product 2 -->
    <rect x="140" y="0" width="120" height="80" rx="12" fill="rgba(168, 85, 247, 0.1)" stroke="rgba(168, 85, 247, 0.2)"/>
    <rect x="150" y="10" width="40" height="40" rx="8" fill="rgba(168, 85, 247, 0.2)"/>
    <circle cx="170" cy="30" r="8" fill="rgba(168, 85, 247, 0.4)"/>
    <text x="200" y="25" font-family="system-ui, -apple-system, sans-serif" font-size="10" font-weight="600" fill="#1f2937">Blusa Moderna</text>
    <text x="200" y="38" font-family="system-ui, -apple-system, sans-serif" font-size="12" font-weight="700" fill="#a855f7">$45.99</text>
    <rect x="200" y="45" width="50" height="20" rx="10" fill="#a855f7"/>
    <text x="225" y="57" font-family="system-ui, -apple-system, sans-serif" font-size="8" font-weight="600" fill="white" text-anchor="middle">Agregar</text>

    <!-- Product 3 -->
    <rect x="280" y="0" width="120" height="80" rx="12" fill="rgba(139, 92, 246, 0.1)" stroke="rgba(139, 92, 246, 0.2)"/>
    <rect x="290" y="10" width="40" height="40" rx="8" fill="rgba(139, 92, 246, 0.2)"/>
    <circle cx="310" cy="30" r="8" fill="rgba(139, 92, 246, 0.4)"/>
    <text x="340" y="25" font-family="system-ui, -apple-system, sans-serif" font-size="10" font-weight="600" fill="#1f2937">Accesorios</text>
    <text x="340" y="38" font-family="system-ui, -apple-system, sans-serif" font-size="12" font-weight="700" fill="#8b5cf6">$29.99</text>
    <rect x="340" y="45" width="50" height="20" rx="10" fill="#8b5cf6"/>
    <text x="365" y="57" font-family="system-ui, -apple-system, sans-serif" font-size="8" font-weight="600" fill="white" text-anchor="middle">Agregar</text>
  </g>

  <!-- Shopping Stats -->
  <g transform="translate(70, 260)">
    <rect x="0" y="0" width="80" height="30" rx="8" fill="rgba(16, 185, 129, 0.1)"/>
    <text x="40" y="15" font-family="system-ui, -apple-system, sans-serif" font-size="10" font-weight="600" fill="#065f46" text-anchor="middle">4.8/5</text>
    <text x="40" y="25" font-family="system-ui, -apple-system, sans-serif" font-size="8" fill="#065f46" text-anchor="middle">Rating</text>

    <rect x="100" y="0" width="80" height="30" rx="8" fill="rgba(59, 130, 246, 0.1)"/>
    <text x="140" y="15" font-family="system-ui, -apple-system, sans-serif" font-size="10" font-weight="600" fill="#1e40af" text-anchor="middle">1,247</text>
    <text x="140" y="25" font-family="system-ui, -apple-system, sans-serif" font-size="8" fill="#1e40af" text-anchor="middle">Ventas</text>

    <rect x="200" y="0" width="80" height="30" rx="8" fill="rgba(245, 158, 11, 0.1)"/>
    <text x="240" y="15" font-family="system-ui, -apple-system, sans-serif" font-size="10" font-weight="600" fill="#92400e" text-anchor="middle">24/7</text>
    <text x="240" y="25" font-family="system-ui, -apple-system, sans-serif" font-size="8" fill="#92400e" text-anchor="middle">Soporte</text>

    <rect x="300" y="0" width="80" height="30" rx="8" fill="rgba(236, 72, 153, 0.1)"/>
    <text x="340" y="15" font-family="system-ui, -apple-system, sans-serif" font-size="10" font-weight="600" fill="#be185d" text-anchor="middle">99%</text>
    <text x="340" y="25" font-family="system-ui, -apple-system, sans-serif" font-size="8" fill="#be185d" text-anchor="middle">Satisfacción</text>
  </g>

  <!-- Premium Title Overlay -->
  <rect x="0" y="0" width="600" height="70" fill="rgba(0,0,0,0.8)"/>
  <rect x="0" y="0" width="600" height="70" fill="url(#productGlow)" opacity="0.4"/>

  <text x="300" y="28" text-anchor="middle" font-family="system-ui, -apple-system, sans-serif" font-size="28" font-weight="700" fill="white">Boutique Luna</text>
  <text x="300" y="48" text-anchor="middle" font-family="system-ui, -apple-system, sans-serif" font-size="16" font-weight="400" fill="rgba(255,255,255,0.9)">Plataforma E-commerce Premium</text>

  <!-- Technology Stack -->
  <g transform="translate(450, 20)">
    <circle cx="20" cy="20" r="12" fill="rgba(255,255,255,0.2)"/>
    <text x="20" y="25" text-anchor="middle" font-family="monospace" font-size="12" fill="white">⚛️</text>

    <circle cx="50" cy="20" r="12" fill="rgba(255,255,255,0.2)"/>
    <text x="50" y="25" text-anchor="middle" font-family="monospace" font-size="12" fill="white">💳</text>

    <circle cx="80" cy="20" r="12" fill="rgba(255,255,255,0.2)"/>
    <text x="80" y="25" text-anchor="middle" font-family="monospace" font-size="12" fill="white">📱</text>
  </g>
</svg>