<svg width="600" height="400" viewBox="0 0 600 400" xmlns="http://www.w3.org/2000/svg">
  <rect width="600" height="400" fill="url(#grad4)"/>
  <defs>
    <linearGradient id="grad4" x1="0%" y1="0%" x2="100%" y2="100%">
      <stop offset="0%" style="stop-color:#1f2937"/>
      <stop offset="100%" style="stop-color:#374151"/>
    </linearGradient>
  </defs>
  
  <!-- Backend/Security theme -->
  <rect x="50" y="100" width="500" height="200" rx="8" fill="rgba(0,0,0,0.8)"/>
  
  <!-- Code/Terminal simulation -->
  <rect x="70" y="120" width="460" height="20" rx="2" fill="#10b981"/>
  <rect x="70" y="150" width="300" height="15" rx="1" fill="#6b7280"/>
  <rect x="70" y="170" width="400" height="15" rx="1" fill="#6b7280"/>
  <rect x="70" y="190" width="250" height="15" rx="1" fill="#10b981"/>
  <rect x="70" y="210" width="380" height="15" rx="1" fill="#6b7280"/>
  <rect x="70" y="230" width="320" height="15" rx="1" fill="#ef4444"/>
  <rect x="70" y="250" width="200" height="15" rx="1" fill="#10b981"/>
  
  <!-- Security icons -->
  <circle cx="150" cy="320" r="20" fill="#10b981" opacity="0.3"/>
  <circle cx="300" cy="320" r="20" fill="#10b981" opacity="0.3"/>
  <circle cx="450" cy="320" r="20" fill="#10b981" opacity="0.3"/>
  
  <rect x="0" y="0" width="600" height="80" fill="rgba(0,0,0,0.9)"/>
  <text x="300" y="35" text-anchor="middle" font-family="Arial" font-size="24" font-weight="bold" fill="white">FinTech Pampa</text>
  <text x="300" y="55" text-anchor="middle" font-family="Arial" font-size="16" fill="#10b981" opacity="0.9">Secure Backend</text>
</svg>