<svg width="600" height="400" viewBox="0 0 600 400" xmlns="http://www.w3.org/2000/svg">
  <!-- Premium Background with Multiple Gradients -->
  <defs>
    <linearGradient id="bgGradient" x1="0%" y1="0%" x2="100%" y2="100%">
      <stop offset="0%" style="stop-color:#1e293b"/>
      <stop offset="50%" style="stop-color:#1d4ed8"/>
      <stop offset="100%" style="stop-color:#3b82f6"/>
    </linearGradient>
    <linearGradient id="cardGradient" x1="0%" y1="0%" x2="100%" y2="100%">
      <stop offset="0%" style="stop-color:#ffffff" stop-opacity="0.95"/>
      <stop offset="100%" style="stop-color:#f8fafc" stop-opacity="0.90"/>
    </linearGradient>
    <radialGradient id="glowGradient" cx="50%" cy="50%" r="50%">
      <stop offset="0%" style="stop-color:#60a5fa" stop-opacity="0.3"/>
      <stop offset="100%" style="stop-color:#3b82f6" stop-opacity="0.1"/>
    </radialGradient>
  </defs>

  <!-- Background -->
  <rect width="600" height="400" fill="url(#bgGradient)"/>

  <!-- Subtle Glow Effect -->
  <circle cx="300" cy="200" r="150" fill="url(#glowGradient)" opacity="0.6"/>

  <!-- Professional Dashboard Interface -->
  <rect x="60" y="90" width="480" height="260" rx="16" fill="url(#cardGradient)" stroke="rgba(255,255,255,0.2)" stroke-width="1"/>
  <rect x="60" y="90" width="480" height="260" rx="16" fill="none" stroke="rgba(255,255,255,0.1)"/>

  <!-- Header Bar -->
  <rect x="80" y="110" width="420" height="50" rx="8" fill="rgba(30, 41, 59, 0.8)"/>
  <circle cx="100" cy="135" r="8" fill="#10b981"/>
  <text x="120" y="140" font-family="system-ui, -apple-system, sans-serif" font-size="14" font-weight="600" fill="white">EcoTech Dashboard</text>
  <rect x="400" y="125" width="80" height="20" rx="10" fill="#3b82f6"/>
  <text x="440" y="138" font-family="system-ui, -apple-system, sans-serif" font-size="10" fill="white" text-anchor="middle">Online</text>

  <!-- KPI Cards -->
  <rect x="90" y="180" width="100" height="60" rx="8" fill="rgba(16, 185, 129, 0.1)" stroke="rgba(16, 185, 129, 0.3)"/>
  <text x="140" y="200" font-family="system-ui, -apple-system, sans-serif" font-size="12" font-weight="500" fill="#065f46" text-anchor="middle">98.5%</text>
  <text x="140" y="215" font-family="system-ui, -apple-system, sans-serif" font-size="10" fill="#065f46" text-anchor="middle">Uptime</text>

  <rect x="210" y="180" width="100" height="60" rx="8" fill="rgba(59, 130, 246, 0.1)" stroke="rgba(59, 130, 246, 0.3)"/>
  <text x="260" y="200" font-family="system-ui, -apple-system, sans-serif" font-size="12" font-weight="500" fill="#1e40af" text-anchor="middle">2,847</text>
  <text x="260" y="215" font-family="system-ui, -apple-system, sans-serif" font-size="10" fill="#1e40af" text-anchor="middle">Active Users</text>

  <rect x="330" y="180" width="100" height="60" rx="8" fill="rgba(245, 158, 11, 0.1)" stroke="rgba(245, 158, 11, 0.3)"/>
  <text x="380" y="200" font-family="system-ui, -apple-system, sans-serif" font-size="12" font-weight="500" fill="#92400e" text-anchor="middle">24.7ms</text>
  <text x="380" y="215" font-family="system-ui, -apple-system, sans-serif" font-size="10" fill="#92400e" text-anchor="middle">Response Time</text>

  <!-- Chart Visualization -->
  <rect x="90" y="260" width="340" height="70" rx="8" fill="rgba(248, 250, 252, 0.8)"/>
  <!-- Simplified chart bars -->
  <rect x="110" y="280" width="20" height="40" rx="2" fill="#10b981"/>
  <rect x="140" y="270" width="20" height="50" rx="2" fill="#3b82f6"/>
  <rect x="170" y="290" width="20" height="30" rx="2" fill="#f59e0b"/>
  <rect x="200" y="275" width="20" height="45" rx="2" fill="#10b981"/>
  <rect x="230" y="265" width="20" height="55" rx="2" fill="#3b82f6"/>
  <rect x="260" y="285" width="20" height="35" rx="2" fill="#f59e0b"/>
  <rect x="290" y="270" width="20" height="50" rx="2" fill="#10b981"/>
  <rect x="320" y="280" width="20" height="40" rx="2" fill="#3b82f6"/>
  <rect x="350" y="275" width="20" height="45" rx="2" fill="#f59e0b"/>
  <rect x="380" y="290" width="20" height="30" rx="2" fill="#10b981"/>

  <!-- Professional Badge -->
  <rect x="430" y="280" width="80" height="24" rx="12" fill="#10b981"/>
  <text x="470" y="296" font-family="system-ui, -apple-system, sans-serif" font-size="10" font-weight="600" fill="white" text-anchor="middle">Live Data</text>

  <!-- Premium Title Overlay -->
  <rect x="0" y="0" width="600" height="90" fill="rgba(0,0,0,0.8)"/>
  <rect x="0" y="0" width="600" height="90" fill="url(#glowGradient)" opacity="0.3"/>

  <text x="300" y="35" text-anchor="middle" font-family="system-ui, -apple-system, sans-serif" font-size="28" font-weight="700" fill="white">EcoTech Solutions</text>
  <text x="300" y="60" text-anchor="middle" font-family="system-ui, -apple-system, sans-serif" font-size="16" font-weight="400" fill="rgba(255,255,255,0.9)">Sistema de Gestión Ambiental</text>

  <!-- Technology Icons -->
  <circle cx="80" cy="50" r="12" fill="rgba(255,255,255,0.2)"/>
  <text x="80" y="55" text-anchor="middle" font-family="monospace" font-size="12" font-weight="bold" fill="white">⚛️</text>

  <circle cx="110" cy="50" r="12" fill="rgba(255,255,255,0.2)"/>
  <text x="110" y="55" text-anchor="middle" font-family="monospace" font-size="12" font-weight="bold" fill="white">⚡</text>

  <circle cx="140" cy="50" r="12" fill="rgba(255,255,255,0.2)"/>
  <text x="140" y="55" text-anchor="middle" font-family="monospace" font-size="12" font-weight="bold" fill="white">🗄️</text>
</svg>